<svg viewBox="0 0 64 64" xmlns="http://www.w3.org/2000/svg"><g data-name="customer service-technical support-male"><path d="M8 23h2s3-4 7-4 8 2 10 2a35.36 35.36 0 0 0 6-1l1 3h2S37 7 22 7 8 23 8 23ZM23 35h-4v4h6v-4h-2zM36 23v8s4 0 5-2 0-6-5-6ZM7 23s-4 0-4 3 0 5 3 5h2s0-8-1-8ZM22 47c7 0 14 1 18 7s3 9 3 9H1s2-14 10-15 6-1 11-1ZM52 1v2l-1 1-2-2-3 3 2 2-1 1h-2v4h2l1 1-1 2 2 3 2-2 1 1v2h4v-2l1-1 2 2 3-3-2-2 1-1h2V8h-2l-1-1 1-2-2-3-2 2-1-1V1h-4z" fill="#404040" class="fill-42b9cc"></path><path d="M54 6a4 4 0 1 0 4 4 4 4 0 0 0-4-4Zm0 6a2 2 0 1 1 2-2 2 2 0 0 1-2 2Z" fill="#6e6704" class="fill-000000"></path><path d="M63 7h-1.582a7.714 7.714 0 0 0-.051-.123l1.12-1.12a1 1 0 0 0 0-1.414l-2.83-2.83a1 1 0 0 0-1.414 0l-1.12 1.12L57 2.582V1a1 1 0 0 0-1-1h-4a1 1 0 0 0-1 1v1.582l-.123.051-1.12-1.12a1 1 0 0 0-1.414 0l-2.83 2.83a1 1 0 0 0 0 1.414l1.12 1.12-.051.123H45a1 1 0 0 0-1 1v4a1 1 0 0 0 1 1h1.582l.051.123-1.12 1.12a1 1 0 0 0 0 1.414l2.83 2.83a1 1 0 0 0 1.414 0l1.12-1.12.123.051V19a1 1 0 0 0 1 1h4a1 1 0 0 0 1-1v-1.582l.123-.051 1.12 1.12a1 1 0 0 0 1.414 0l2.83-2.83a1 1 0 0 0 0-1.414l-1.12-1.12.051-.123H63a1 1 0 0 0 1-1V8a1 1 0 0 0-1-1Zm-1 4h-1.29a1 1 0 0 0-.957.708 6.081 6.081 0 0 1-.47 1.141 1 1 0 0 0 .17 1.188l.913.913-1.416 1.416-.913-.913a1 1 0 0 0-1.187-.17 6.081 6.081 0 0 1-1.141.47 1 1 0 0 0-.709.957V18h-2v-1.29a1 1 0 0 0-.708-.957 6.081 6.081 0 0 1-1.141-.47 1 1 0 0 0-1.187.17l-.913.913-1.417-1.416.913-.913a1 1 0 0 0 .17-1.187 6.081 6.081 0 0 1-.47-1.141A1 1 0 0 0 47.29 11H46V9h1.29a1 1 0 0 0 .957-.708 6.081 6.081 0 0 1 .47-1.141 1 1 0 0 0-.17-1.187l-.913-.913 1.416-1.417.913.913a1 1 0 0 0 1.188.17 6.081 6.081 0 0 1 1.141-.47A1 1 0 0 0 53 3.29V2h2v1.29a1 1 0 0 0 .708.957 6.081 6.081 0 0 1 1.141.47 1 1 0 0 0 1.188-.17l.913-.913 1.416 1.416-.913.913a1 1 0 0 0-.17 1.188 6.081 6.081 0 0 1 .47 1.141A1 1 0 0 0 60.71 9H62ZM27 46H17A17.019 17.019 0 0 0 0 63v1h44v-1a17.019 17.019 0 0 0-17-17ZM2.033 62A15.02 15.02 0 0 1 17 48h10a15.02 15.02 0 0 1 14.967 14ZM6.214 32h1.255l.058.991A11.022 11.022 0 0 0 16.74 43.2 26.528 26.528 0 0 0 22 44a26.176 26.176 0 0 0 5.212-.79A11.037 11.037 0 0 0 34.9 38h.1a7.008 7.008 0 0 0 7-7v-5.271a3.414 3.414 0 0 0-1.066-2.446 4.121 4.121 0 0 0-.934-.66V20a18 18 0 0 0-36 0v2.619a4.175 4.175 0 0 0-.934.664A3.414 3.414 0 0 0 2 25.729v2.6A3.976 3.976 0 0 0 6.214 32ZM8.87 21.764A13 13 0 0 1 21.848 8h.3A13 13 0 0 1 35.13 21.764l-.014.236h-.4l-.772-2.316a1 1 0 0 0-1.4-.578A11.128 11.128 0 0 1 28 20a7.467 7.467 0 0 1-2.839-.68A17.647 17.647 0 0 0 18 18c-5.223 0-7.716 2.783-8.556 4h-.56Zm17.99 19.477a.9.9 0 0 0-.1.02A25.012 25.012 0 0 1 22 42a25.784 25.784 0 0 1-4.86-.759 9.048 9.048 0 0 1-7.616-8.367L9 24h1a1 1 0 0 0 .895-.553C10.912 23.413 12.68 20 18 20a15.7 15.7 0 0 1 6.448 1.189A9.272 9.272 0 0 0 28 22a14.126 14.126 0 0 0 4.383-.687l.668 2A1 1 0 0 0 34 24h1l-.522 8.874A8.893 8.893 0 0 1 33.7 36H26v-1a1 1 0 0 0-1-1h-6a1 1 0 0 0-1 1v4a1 1 0 0 0 1 1h6a1 1 0 0 0 1-1v-1h6.468a9 9 0 0 1-5.608 3.241ZM24 36v2h-4v-2Zm11.887-.09a10.849 10.849 0 0 0 .586-2.92l.058-.99h1.255a4.636 4.636 0 0 0 2.168-.54 4.986 4.986 0 0 1-4.067 4.45ZM40 28.327C40 29.234 38.986 30 37.786 30h-1.138L37 24.073l.723-.017a2.518 2.518 0 0 1 1.816.657A1.432 1.432 0 0 1 40 25.729v2.6ZM6 20a16 16 0 0 1 32 0v2.08c-.109 0-.216-.026-.326-.023l-.559.013.011-.19A15 15 0 0 0 22.152 6h-.3A15 15 0 0 0 6.874 21.881l.011.19-.559-.013c-.111 0-.217.017-.326.021Zm-2 5.729a1.432 1.432 0 0 1 .464-1.016 2.538 2.538 0 0 1 1.816-.657l.72.017L7.352 30H6.214C5.014 30 4 29.234 4 28.327Z" fill="#6e6704" class="fill-000000"></path></g></svg>